<?xml version="1.0" standalone="no"?><!DOCTYPE svg PUBLIC "-//W3C//DTD SVG 1.1//EN" "http://www.w3.org/Graphics/SVG/1.1/DTD/svg11.dtd"><svg t="1586160048706" class="icon" viewBox="0 0 1024 1024" version="1.1" xmlns="http://www.w3.org/2000/svg" p-id="6876" xmlns:xlink="http://www.w3.org/1999/xlink" width="200" height="200"><defs><style type="text/css"></style></defs><path d="M363.273442 659.489686 660.733984 659.489686C812.611992 659.489686 939.138904 775.061822 953.544104 925.107659L988.692837 886.422846 35.313527 886.422846 70.462482 925.105346C84.860704 775.02833 211.303606 659.489686 363.273442 659.489686ZM35.313527 957.043535 988.692837 957.043535C1009.527497 957.043535 1025.832655 939.098024 1023.841571 918.358722 1005.966553 732.170964 849.081374 588.868996 660.733984 588.868996L363.273442 588.868996C174.827716 588.868996 18.029957 732.144746 0.164572 918.361035-1.825058 939.09956 14.479794 957.043535 35.313527 957.043535ZM757.250203 305.986648C757.250203 166.24693 643.968784 52.965517 504.229071 52.965517 364.489357 52.965517 251.207938 166.24693 251.207938 305.986648 251.207938 445.726367 364.489357 559.007779 504.229071 559.007779 643.968784 559.007779 757.250203 445.726367 757.250203 305.986648ZM321.828627 305.986648C321.828627 205.24966 403.492087 123.586207 504.229071 123.586207 604.966054 123.586207 686.629514 205.24966 686.629514 305.986648 686.629514 406.723637 604.966054 488.38709 504.229071 488.38709 403.492087 488.38709 321.828627 406.723637 321.828627 305.986648Z" p-id="6877"></path></svg>